<?xml version="1.0" encoding="UTF-8"?>
<!DOCTYPE svg PUBLIC "-//W3C//DTD SVG 1.1//EN" "http://www.w3.org/Graphics/SVG/1.1/DTD/svg11.dtd">
<!-- Creator: CorelDRAW 2021 (64-Bit) -->
<svg xmlns="http://www.w3.org/2000/svg" xml:space="preserve" width="264.583mm" height="166.687mm" version="1.1" style="shape-rendering:geometricPrecision; text-rendering:geometricPrecision; image-rendering:optimizeQuality; fill-rule:evenodd; clip-rule:evenodd"
viewBox="0 0 26458.32 16668.74"
 xmlns:xlink="http://www.w3.org/1999/xlink"
 xmlns:xodm="http://www.corel.com/coreldraw/odm/2003">
 <defs>
  <style type="text/css">
   <![CDATA[
    .str0 {stroke:#FFDD1F;stroke-width:317.5;stroke-linecap:round;stroke-linejoin:round;stroke-miterlimit:22.9256}
    .fil0 {fill:none;fill-rule:nonzero}
   ]]>
  </style>
   <mask id="id0">
  <linearGradient id="id1" gradientUnits="userSpaceOnUse" x1="13709.83" y1="16799.1" x2="13709.88" y2="5.54">
   <stop offset="0" style="stop-opacity:0; stop-color:white"/>
   <stop offset="0.380392" style="stop-opacity:0.501961; stop-color:white"/>
   <stop offset="1" style="stop-opacity:1; stop-color:white"/>
  </linearGradient>
    <rect style="fill:url(#id1)" x="-158.8" y="-158.71" width="26775.82" height="16986.24"/>
   </mask>
 </defs>
 <g id="Layer_x0020_1">
  <metadata id="CorelCorpID_0Corel-Layer"/>
  <path class="fil0 str0" style="mask:url(#id0)" d="M20214.18 11898.34l6244.09 -2646.57 0 -1605.05 -6244.09 -2660.83 0 1883.27 4017.63 1583.66 -4017.63 1569.39 0 1876.13zm-11513.99 -7145.88l1975 0 0 -4752.42 4246.25 0 0 4752.42 2595.71 0 0 3525.54 -2595.71 0 0 3229.4c0,479.46 70.53,864.93 211.6,1161.07 141.07,296.14 399.7,446.57 775.89,446.57 253.94,0 470.24,-56.41 648.93,-169.22 178.69,-112.82 286.85,-188.03 324.47,-225.65l1467.14 3046.08c-65.84,56.4 -268.04,159.82 -611.31,310.25 -343.28,150.42 -780.6,286.74 -1307.27,408.96 -526.66,122.22 -1114.45,183.32 -1763.38,183.32 -1156.78,0 -2111.36,-329.05 -2863.74,-982.44 -752.38,-653.4 -1128.58,-1659.36 -1128.58,-3022.56l0 -4385.78 -1975 0 0 -3525.54zm-2456.15 7038.2l-6244.09 -2646.57 0 -1605.05 6244.09 -2660.83 0 1883.27 -4017.63 1583.66 4017.63 1569.39 0 1876.13z"/>
 </g>
</svg>
